<svg width="774" height="475" viewBox="0 0 774 475" fill="none" xmlns="http://www.w3.org/2000/svg">
<g clip-path="url(#clip0_2_241)">
<path d="M647.758 389.388H126.242C115.089 389.388 106.014 380.316 106.014 369.165V306.412H667.986V369.165C667.986 380.316 658.912 389.388 647.758 389.388Z" fill="#E6E6E6"/>
<path d="M454.497 378.891H321.503V473.863H454.497V378.891Z" fill="#E6E6E6"/>
<path d="M462.496 461.867H313.504V473.863H462.496V461.867Z" fill="#E6E6E6"/>
<path d="M667.486 332.904H106.014V13.8778C106.014 6.22575 112.242 0 119.896 0H653.605C661.259 0 667.486 6.22575 667.486 13.8778V332.904Z" fill="#3F3D56"/>
<path d="M388 11.4967C390.209 11.4967 392 9.70631 392 7.49781C392 5.28931 390.209 3.49896 388 3.49896C385.791 3.49896 384 5.28931 384 7.49781C384 9.70631 385.791 11.4967 388 11.4967Z" fill="white"/>
<path d="M653.986 14.4958H119.014V315.409H653.986V14.4958Z" fill="white"/>
<path d="M591.375 241.841C616.566 241.841 636.987 221.425 636.987 196.24C636.987 171.055 616.566 150.639 591.375 150.639C566.184 150.639 545.763 171.055 545.763 196.24C545.763 221.425 566.184 241.841 591.375 241.841Z" fill="#6C63FF"/>
<path d="M774 474.16C774 474.624 773.624 475 773.16 475H0V473.32H773.16C773.624 473.32 774 473.697 774 474.16Z" fill="#E6E6E6"/>
<path d="M130.946 189.608L125.183 209.775L148.236 211.215L146.795 187.447L130.946 189.608Z" fill="#FFB6B6"/>
<path d="M226.718 271.932C232.189 273.799 237.587 272.491 238.775 269.01C239.963 265.529 236.491 261.195 231.018 259.328C228.842 258.552 226.512 258.308 224.223 258.617L200.944 250.999L197.601 261.996L220.904 268.339C222.528 269.984 224.521 271.216 226.718 271.932Z" fill="#FFB6B6"/>
<path d="M149.471 205.302C149.471 205.302 135.041 222.659 143.389 229.84C151.737 237.021 189.018 263.605 189.018 263.605L203.552 265.867L207.269 251.822L174.451 227.509L149.471 205.302H149.471Z" fill="#6C63FF"/>
<path d="M187.706 390.068L195.726 419.781L208.463 417.423L205.632 386.766L187.706 390.068Z" fill="#FFB6B6"/>
<path d="M197.613 417.894L192.895 418.837L189.121 431.571C189.121 431.571 195.254 433.93 195.254 438.646C195.254 443.362 197.613 446.664 207.048 446.192C216.483 445.72 217.426 446.192 217.426 442.419C217.426 438.646 210.35 418.837 210.35 418.837C210.35 418.837 210.822 410.82 205.161 411.291C199.5 411.763 197.613 417.894 197.613 417.894H197.613Z" fill="#2F2E41"/>
<path d="M144.581 389.606L145.129 420.376L158.058 421.188L162.773 390.764L144.581 389.606Z" fill="#FFB6B6"/>
<path d="M147.418 419.005L142.613 418.773L135.853 430.206C135.853 430.206 141.228 433.985 140.08 438.56C138.932 443.134 140.416 446.91 149.682 448.748C158.948 450.586 159.749 451.273 160.667 447.613C161.585 443.953 159.543 423.019 159.543 423.019C159.543 423.019 161.952 415.357 156.346 414.437C150.741 413.518 147.418 419.005 147.418 419.005Z" fill="#2F2E41"/>
<path d="M149.967 205.66L124.493 203.773L118.832 210.848C118.832 210.848 116.001 258.483 117.888 263.199C119.775 267.915 118.36 294.798 118.36 294.798L182.578 290.318L168.365 256.125L168.837 236.316L156.099 212.263L149.967 205.66L149.967 205.66Z" fill="#6C63FF"/>
<path d="M121.19 284.894C121.19 284.894 110.812 299.986 114.586 308.004C118.36 316.022 143.959 362.575 143.959 362.575L140.657 405.966L163.3 404.079L167.074 357.388L151.382 319.323L154.212 315.079L177.8 343.848L186.291 393.841L208.935 391.011L196.669 317.908L182.335 289.732L121.19 284.894H121.19Z" fill="#2F2E41"/>
<path d="M118.974 176.777C123.804 176.777 127.72 172.863 127.72 168.034C127.72 163.204 123.804 159.29 118.974 159.29C114.143 159.29 110.227 163.204 110.227 168.034C110.227 172.863 114.143 176.777 118.974 176.777Z" fill="#2F2E41"/>
<path d="M139.171 200.449C149.69 200.449 158.217 191.924 158.217 181.407C158.217 170.891 149.69 162.365 139.171 162.365C128.652 162.365 120.124 170.891 120.124 181.407C120.124 191.924 128.652 200.449 139.171 200.449Z" fill="#FFB6B6"/>
<path d="M133.132 202.283C131.107 203.355 125.411 199.419 123.373 194.145C122.062 190.752 118.875 191.317 116.84 187.085C115.655 184.62 119.195 182.208 118.611 180.076C117.553 176.213 118.879 172.758 119.048 172.334C120.506 168.68 122.656 168.765 124.39 164.511C125.434 161.95 124.764 161.65 125.641 160.34C128.173 156.559 135.52 156.415 140.701 158.203C142.494 158.822 146.813 155.507 150.319 157.908C154.449 160.738 157.197 168.895 156.565 170.39C156.181 171.298 154.042 170.373 149.595 171.072C145.477 171.719 150.912 174.795 146.278 175.843C140.798 177.083 139.147 175.952 137.629 177.685C136.023 179.517 135.726 183.225 137.191 185.426C137.918 186.519 138.855 186.904 138.738 187.664C138.524 189.052 137.291 188.298 136.886 189.77C136.416 191.483 140.319 193.728 139.98 194.246C139.911 194.351 139.619 194.464 135.808 192.995C134.286 192.409 133.699 191.903 133.528 192.09C133.252 192.393 131.884 195.434 133.438 196.727C135.858 198.74 134.181 199.54 135.284 201.116C136.422 202.742 134.418 201.602 133.132 202.283V202.283Z" fill="#2F2E41"/>
<path d="M137.591 312.306C140.631 317.221 145.632 319.638 148.761 317.703C151.89 315.769 151.961 310.217 148.92 305.299C147.732 303.319 146.087 301.651 144.122 300.436L130.98 279.771L121.411 286.143L135.383 305.839C135.592 308.14 136.349 310.357 137.591 312.306Z" fill="#FFB6B6"/>
<path d="M120.247 211.791C120.247 211.791 98.0751 216.036 99.962 226.883C101.849 237.731 113.76 281.936 113.76 281.936L123.549 292.912L135.343 284.422L125.436 244.805L120.247 211.791V211.791Z" fill="#6C63FF"/>
<path d="M643.942 220.85C643.07 219.38 639.298 220.954 638.605 219.62C637.914 218.291 641.418 216.266 643.42 211.639C643.782 210.805 646.057 205.547 644.372 203.925C641.18 200.85 626.569 213.54 621.456 209.387C620.334 208.476 619.55 206.657 616.154 203.703C614.803 202.528 613.986 201.997 613.195 202.195C612.073 202.475 611.984 203.976 610.781 206.927C608.977 211.354 607.91 211.086 606.859 214.618C606.079 217.24 606.257 218.764 605.339 219.061C604.039 219.481 602.843 216.7 601.197 216.949C599.516 217.203 598.5 220.441 598.179 222.865C597.577 227.414 599.248 230.416 600.174 233.572C601.181 237.003 601.778 242.219 599.454 249.604L576.448 314.407C581.527 301.11 596.233 264.658 602.413 251.112C604.197 247.202 606.166 243.235 610.211 241.67C614.104 240.163 619.452 241.063 626.269 239.421C627.065 239.229 629.275 238.667 629.553 237.368C629.783 236.294 628.483 235.694 628.683 234.688C628.951 233.339 631.507 233.322 634.647 231.765C636.862 230.667 638.241 229.362 639.428 228.239C639.786 227.901 645.103 222.807 643.942 220.85H643.942L643.942 220.85Z" fill="#E6E6E6"/>
<path d="M553.431 254.965C552.458 254.969 552.142 257.274 551.287 257.229C550.435 257.185 550.452 254.881 548.759 252.563C548.453 252.145 546.529 249.512 545.247 249.87C542.816 250.55 544.83 261.381 541.316 262.691C540.545 262.979 539.425 262.839 536.995 263.653C536.029 263.977 535.533 264.225 535.401 264.669C535.215 265.301 535.926 265.778 537.028 267.219C538.681 269.382 538.242 269.828 539.672 271.363C540.734 272.502 541.534 272.855 541.414 273.391C541.246 274.15 539.536 273.934 539.183 274.814C538.823 275.712 540.119 277.145 541.216 278.002C543.276 279.61 545.232 279.656 547.048 280.112C549.023 280.608 551.756 281.82 554.711 285.091L579.886 315.078C574.824 308.749 561.172 291.015 556.305 284.075C554.9 282.071 553.521 279.96 553.919 277.524C554.303 275.178 556.288 272.814 557.449 268.995C557.584 268.549 557.946 267.303 557.388 266.791C556.927 266.369 556.258 266.833 555.822 266.445C555.237 265.924 555.966 264.665 556.108 262.675C556.208 261.272 555.965 260.218 555.756 259.312C555.693 259.039 554.726 254.96 553.431 254.965V254.965Z" fill="#E6E6E6"/>
<path d="M572.845 259.322L572.259 254.089L572.527 253.693C573.767 251.858 574.398 250.067 574.406 248.367C574.407 248.096 574.395 247.826 574.382 247.55C574.331 246.459 574.268 245.102 574.976 243.521C575.373 242.639 576.487 240.597 578.163 240.85C578.614 240.913 578.955 241.12 579.214 241.363C579.252 241.302 579.291 241.241 579.333 241.176C579.855 240.38 580.268 240.039 580.666 239.71C580.972 239.458 581.288 239.197 581.783 238.581C582 238.311 582.17 238.073 582.312 237.874C582.746 237.27 583.312 236.55 584.31 236.562C585.377 236.613 585.935 237.494 586.305 238.078C586.966 239.119 587.266 239.87 587.464 240.367C587.536 240.549 587.618 240.754 587.66 240.817C588.004 241.322 590.798 240.85 591.85 240.678C594.214 240.284 596.26 239.943 597.103 241.433C597.707 242.5 597.258 243.91 595.729 245.736C595.253 246.305 594.746 246.737 594.296 247.075C594.669 247.298 595.003 247.639 595.138 248.175C595.456 249.443 594.366 250.714 591.898 251.957C591.285 252.268 590.46 252.682 589.304 252.882C588.759 252.975 588.269 252.998 587.85 253.011C587.841 253.253 587.784 253.516 587.636 253.786C587.203 254.582 586.3 254.961 584.941 254.87C583.445 254.792 582.213 254.506 581.126 254.256C580.177 254.039 579.359 253.854 578.717 253.897C577.527 253.993 576.61 254.946 575.533 256.181L572.845 259.322H572.845V259.322Z" fill="#E6E6E6"/>
<path d="M575.565 228.167L570.651 230.061L570.199 229.903C568.11 229.169 566.217 229.013 564.57 229.437C564.308 229.504 564.049 229.585 563.786 229.667C562.743 229.993 561.446 230.398 559.736 230.115C558.783 229.955 556.525 229.395 556.344 227.71C556.291 227.258 556.405 226.875 556.574 226.563C556.505 226.542 556.437 226.52 556.363 226.496C555.46 226.193 555.025 225.88 554.607 225.578C554.285 225.347 553.953 225.107 553.231 224.785C552.914 224.643 552.641 224.54 552.412 224.452C551.718 224.186 550.877 223.821 550.636 222.853C550.415 221.809 551.126 221.045 551.597 220.539C552.437 219.635 553.087 219.156 553.518 218.837C553.676 218.722 553.853 218.59 553.903 218.534C554.305 218.073 553.139 215.491 552.706 214.517C551.725 212.331 550.876 210.439 552.105 209.246C552.983 208.391 554.461 208.467 556.616 209.482C557.287 209.799 557.834 210.179 558.275 210.529C558.396 210.112 558.641 209.703 559.125 209.436C560.272 208.806 561.778 209.538 563.607 211.61C564.063 212.124 564.673 212.816 565.159 213.884C565.388 214.387 565.534 214.855 565.653 215.258C565.89 215.205 566.158 215.193 566.458 215.268C567.338 215.485 567.933 216.261 568.19 217.599C568.494 219.066 568.53 220.33 568.564 221.444C568.594 222.417 568.623 223.254 568.827 223.864C569.222 224.991 570.376 225.637 571.845 226.364L575.565 228.167L575.565 228.167Z" fill="#E6E6E6"/>
<path d="M572.845 212.751L572.259 207.519L572.527 207.122C573.767 205.288 574.398 203.496 574.406 201.796C574.407 201.525 574.395 201.255 574.382 200.98C574.331 199.888 574.268 198.531 574.976 196.95C575.373 196.068 576.487 194.026 578.163 194.279C578.614 194.342 578.955 194.549 579.214 194.792C579.252 194.731 579.291 194.671 579.333 194.605C579.855 193.809 580.268 193.468 580.666 193.14C580.972 192.887 581.288 192.627 581.783 192.01C582 191.74 582.17 191.502 582.312 191.303C582.746 190.699 583.312 189.979 584.31 189.991C585.377 190.042 585.935 190.924 586.305 191.507C586.966 192.548 587.266 193.299 587.464 193.796C587.536 193.978 587.618 194.183 587.66 194.246C588.004 194.752 590.798 194.279 591.85 194.107C594.214 193.713 596.26 193.372 597.103 194.863C597.707 195.929 597.258 197.339 595.729 199.166C595.253 199.734 594.746 200.166 594.296 200.505C594.669 200.727 595.003 201.068 595.138 201.604C595.456 202.872 594.366 204.143 591.898 205.386C591.285 205.697 590.46 206.111 589.304 206.311C588.759 206.404 588.269 206.427 587.85 206.44C587.841 206.682 587.784 206.945 587.636 207.215C587.203 208.011 586.3 208.39 584.941 208.299C583.445 208.221 582.213 207.936 581.126 207.685C580.177 207.468 579.359 207.284 578.717 207.327C577.527 207.423 576.61 208.375 575.533 209.611L572.845 212.751H572.845V212.751Z" fill="#E6E6E6"/>
<path d="M578.201 314.322L577.104 313.634L576.839 312.369L577.104 313.634L575.826 313.781C575.805 313.662 575.736 313.389 575.631 312.962C575.059 310.623 573.313 303.503 571.858 292.29C570.842 284.462 570.267 276.415 570.148 268.367C570.029 260.307 570.411 254.206 570.716 249.301C570.948 245.603 571.228 242.08 571.504 238.649C572.237 229.483 572.928 220.824 572.414 211.238C572.3 209.098 572.061 204.643 569.458 199.903C567.948 197.154 565.868 194.714 563.275 192.652L564.887 190.626C567.749 192.905 570.05 195.608 571.727 198.66C574.614 203.916 574.874 208.769 574.999 211.101C575.522 220.857 574.823 229.599 574.083 238.854C573.81 242.272 573.529 245.779 573.299 249.463C572.996 254.322 572.618 260.371 572.736 268.327C572.852 276.278 573.421 284.227 574.423 291.956C575.861 303.028 577.581 310.042 578.146 312.346C578.446 313.576 578.51 313.834 578.201 314.322V314.322Z" fill="#E6E6E6"/>
<path d="M558.529 196.763C558.423 196.763 558.315 196.76 558.206 196.753C556.003 196.634 553.962 195.315 552.14 192.834C551.286 191.667 550.848 190.335 549.977 187.68C549.841 187.27 549.184 185.193 548.785 182.336C548.523 180.469 548.556 179.688 548.926 178.998C549.337 178.23 550.002 177.694 550.75 177.333C550.717 177.085 550.744 176.83 550.851 176.57C551.292 175.491 552.465 175.633 553.099 175.701C553.42 175.741 553.82 175.794 554.253 175.772C554.932 175.739 555.298 175.537 555.851 175.233C556.381 174.943 557.039 174.582 558.016 174.382C559.941 173.98 561.555 174.526 562.087 174.705C564.886 175.638 566.266 177.813 567.863 180.332C568.181 180.837 569.274 182.677 569.996 185.198C570.517 187.018 570.443 187.826 570.287 188.427C569.968 189.663 569.216 190.37 567.307 191.932C565.313 193.567 564.312 194.385 563.453 194.883C561.453 196.038 560.197 196.763 558.529 196.763V196.763V196.763Z" fill="#E6E6E6"/>
<path d="M444.361 268.625H241.305C233.131 268.625 226.481 261.976 226.481 253.804V100.296C226.481 92.1245 233.131 85.4753 241.305 85.4753H444.361C452.535 85.4753 459.185 92.1245 459.185 100.296V253.804C459.185 261.976 452.535 268.625 444.361 268.625H444.361Z" fill="white"/>
<path d="M444.361 268.625H241.305C233.131 268.625 226.481 261.976 226.481 253.804V100.296C226.481 92.1245 233.131 85.4753 241.305 85.4753H444.361C452.535 85.4753 459.185 92.1245 459.185 100.296V253.804C459.185 261.976 452.535 268.625 444.361 268.625H444.361ZM241.305 87.9503C234.496 87.9503 228.956 93.4889 228.956 100.296V253.804C228.956 260.612 234.496 266.15 241.305 266.15H444.361C451.17 266.15 456.71 260.612 456.71 253.804V100.296C456.71 93.4889 451.17 87.9503 444.361 87.9503H241.305Z" fill="#3F3D56"/>
<path d="M422.052 104.038C424.103 104.038 425.766 102.376 425.766 100.325C425.766 98.275 424.103 96.6129 422.052 96.6129C420.001 96.6129 418.338 98.275 418.338 100.325C418.338 102.376 420.001 104.038 422.052 104.038Z" fill="#3F3D56"/>
<path d="M431.954 104.038C434.005 104.038 435.668 102.376 435.668 100.325C435.668 98.275 434.005 96.6129 431.954 96.6129C429.903 96.6129 428.241 98.275 428.241 100.325C428.241 102.376 429.903 104.038 431.954 104.038Z" fill="#3F3D56"/>
<path d="M441.857 104.038C443.907 104.038 445.57 102.376 445.57 100.325C445.57 98.275 443.907 96.6129 441.857 96.6129C439.806 96.6129 438.143 98.275 438.143 100.325C438.143 102.376 439.806 104.038 441.857 104.038Z" fill="#3F3D56"/>
<path d="M247.523 160.344C246.499 160.344 245.666 161.177 245.666 162.2C245.666 162.699 245.859 163.161 246.209 163.502C246.562 163.863 247.024 164.057 247.523 164.057H439.381C440.405 164.057 441.237 163.224 441.237 162.2C441.237 161.701 441.045 161.24 440.695 160.899C440.342 160.537 439.879 160.344 439.381 160.344H247.523Z" fill="#E6E6E6"/>
<path d="M404.723 159.725V164.675H247.523C246.842 164.675 246.223 164.403 245.778 163.945C245.32 163.5 245.047 162.881 245.047 162.2C245.047 160.839 246.162 159.725 247.523 159.725H404.723Z" fill="#6C63FF"/>
<path d="M436.286 150.444H411.531C408.8 150.444 406.579 148.224 406.579 145.494C406.579 142.764 408.8 140.544 411.531 140.544H436.286C439.016 140.544 441.238 142.764 441.238 145.494C441.238 148.224 439.016 150.444 436.286 150.444Z" fill="#E6E6E6"/>
<path d="M274.136 124.457H249.38C246.65 124.457 244.429 122.237 244.429 119.507C244.429 116.777 246.65 114.557 249.38 114.557H274.136C276.866 114.557 279.087 116.777 279.087 119.507C279.087 122.237 276.866 124.457 274.136 124.457Z" fill="#E6E6E6"/>
<path d="M247.523 216.031C246.499 216.031 245.666 216.864 245.666 217.888C245.666 218.387 245.859 218.848 246.209 219.189C246.562 219.551 247.024 219.744 247.523 219.744H439.381C440.405 219.744 441.237 218.911 441.237 217.888C441.237 217.389 441.045 216.927 440.695 216.586C440.342 216.225 439.879 216.031 439.381 216.031H247.523Z" fill="#E6E6E6"/>
<path d="M309.413 215.413V220.363H247.523C246.842 220.363 246.223 220.09 245.778 219.633C245.32 219.187 245.047 218.568 245.047 217.888C245.047 216.526 246.162 215.413 247.523 215.413H309.413Z" fill="#6C63FF"/>
<path d="M436.286 206.132H411.531C408.8 206.132 406.579 203.911 406.579 201.182C406.579 198.452 408.8 196.232 411.531 196.232H436.286C439.016 196.232 441.238 198.452 441.238 201.182C441.238 203.911 439.016 206.132 436.286 206.132Z" fill="#E6E6E6"/>
</g>
<defs>
<clipPath id="clip0_2_241">
<rect width="774" height="475" fill="white"/>
</clipPath>
</defs>
</svg>
