<svg width="678" height="405" viewBox="0 0 678 405" fill="none" xmlns="http://www.w3.org/2000/svg">
<g clip-path="url(#clip0_3203_28)">
<path d="M519.093 400.42C510.412 393.092 505.14 381.515 506.523 370.245C507.905 358.975 516.47 348.615 527.578 346.221C538.687 343.828 551.351 350.453 554.725 361.295C556.582 340.392 558.721 318.612 569.845 300.811C579.917 284.692 597.361 273.158 616.267 271.095C635.173 269.032 655.079 276.825 666.87 291.734C678.661 306.644 681.548 328.319 673.29 345.436C667.206 358.046 655.999 367.43 644.255 375.065C606.309 399.527 560.798 409.475 516.095 403.078L519.093 400.42Z" fill="#F2F2F2"/>
<path d="M648.174 277.257C632.574 289.952 618.263 304.151 605.448 319.648C585.391 343.817 569.161 370.915 557.324 399.998C556.457 402.12 559.905 403.044 560.762 400.946C580.131 353.679 611.051 312.019 650.696 279.776C652.476 278.328 649.94 275.82 648.174 277.257Z" fill="white"/>
<path d="M218.259 398.429C230.181 388.363 237.423 372.463 235.524 356.983C233.625 341.504 221.862 327.274 206.604 323.987C191.346 320.7 173.953 329.799 169.319 344.691C166.768 315.98 163.829 286.066 148.551 261.615C134.718 239.476 110.757 223.635 84.7899 220.801C58.8224 217.967 31.482 228.671 15.287 249.149C-0.907972 269.627 -4.87324 299.398 6.46929 322.909C14.8249 340.228 30.219 353.117 46.3481 363.603C97.8056 397.058 161.639 411.01 222.377 402.08" fill="#F2F2F2"/>
<path d="M40.9658 229.264C62.3922 246.701 82.0487 266.203 99.6509 287.488C117.256 308.751 132.755 331.67 145.931 355.923C153.296 369.528 159.912 383.524 165.749 397.85C166.939 400.764 162.203 402.032 161.026 399.151C150.687 373.895 137.894 349.712 122.833 326.95C107.845 304.27 90.6904 283.096 71.6101 263.726C60.8182 252.775 49.4318 242.426 37.5026 232.724C35.0574 230.735 38.5409 227.291 40.9658 229.264Z" fill="white"/>
<path d="M486.679 404.113H202.231V112.513C202.231 50.4731 252.748 0 314.841 0H374.069C436.163 0 486.679 50.4731 486.679 112.513V404.113Z" fill="#F2F2F2"/>
<path d="M427.452 404.114H202.231V112.513C202.169 88.741 209.703 65.5694 223.737 46.3724C224.254 45.6679 224.77 44.9725 225.302 44.2847C232.09 35.3896 240.168 27.5558 249.269 21.0419C249.783 20.6682 250.299 20.3009 250.823 19.9336C258.439 14.668 266.677 10.3635 275.35 7.11802C275.865 6.92297 276.389 6.72755 276.913 6.54011C284.757 3.7433 292.888 1.82749 301.157 0.828075C301.669 0.758114 302.195 0.703369 302.722 0.648623C310.779 -0.212139 318.905 -0.212139 326.962 0.648623C327.487 0.703369 328.014 0.758108 328.532 0.828823C336.798 1.82831 344.927 3.74388 352.769 6.54014C353.294 6.72759 353.818 6.923 354.334 7.11842C362.9 10.323 371.041 14.5633 378.576 19.7447C379.099 20.104 379.623 20.4712 380.14 20.8385C385.241 24.4769 390.033 28.5303 394.466 32.9572C398.021 36.5082 401.334 40.2932 404.382 44.287C404.913 44.9725 405.429 45.6679 405.945 46.3713C419.979 65.5685 427.514 88.7405 427.452 112.513V404.114Z" fill="#CCCCCC"/>
<path d="M409.138 273.692C416.024 273.692 421.607 268.114 421.607 261.233C421.607 254.353 416.024 248.775 409.138 248.775C402.251 248.775 396.669 254.353 396.669 261.233C396.669 268.114 402.251 273.692 409.138 273.692Z" fill="#6C63FF"/>
<path d="M463.377 395.379H453.823L449.277 358.559L463.379 358.56L463.377 395.379Z" fill="#FFB8B8"/>
<path d="M446.998 392.652H465.424V404.243H435.397C435.397 402.721 435.697 401.214 436.28 399.807C436.863 398.401 437.717 397.123 438.795 396.047C439.872 394.97 441.151 394.117 442.558 393.534C443.966 392.952 445.475 392.652 446.998 392.652Z" fill="#2F2E41"/>
<path d="M510.915 395.379H501.361L496.815 358.559L510.917 358.56L510.915 395.379Z" fill="#FFB8B8"/>
<path d="M494.536 392.652H512.962V404.243H482.935C482.935 402.721 483.235 401.214 483.818 399.807C484.401 398.401 485.255 397.123 486.333 396.047C487.41 394.97 488.689 394.117 490.096 393.534C491.504 392.952 493.013 392.652 494.536 392.652Z" fill="#2F2E41"/>
<path d="M415.449 263.701C414.761 262.689 414.304 261.539 414.11 260.332C413.916 259.125 413.988 257.889 414.324 256.713C414.659 255.537 415.248 254.449 416.05 253.525C416.851 252.601 417.846 251.864 418.964 251.365L451.442 161.926L467.423 170.64L430.34 256.111C431.054 258.043 431.033 260.169 430.283 262.086C429.532 264.004 428.104 265.579 426.268 266.515C424.433 267.451 422.318 267.681 420.323 267.162C418.329 266.644 416.595 265.412 415.449 263.701Z" fill="#FFB8B8"/>
<path d="M506.035 280.507C504.973 279.899 504.058 279.066 503.353 278.066C502.648 277.066 502.172 275.924 501.957 274.72C501.742 273.516 501.794 272.28 502.109 271.098C502.424 269.916 502.994 268.818 503.78 267.881L493.719 173.269L511.906 174.099L516.088 267.162C517.576 268.585 518.491 270.505 518.658 272.557C518.825 274.609 518.233 276.651 516.994 278.296C515.755 279.941 513.955 281.075 511.935 281.482C509.915 281.89 507.816 281.543 506.035 280.507Z" fill="#FFB8B8"/>
<path d="M477.02 145.359C487.591 145.359 496.161 136.797 496.161 126.235C496.161 115.673 487.591 107.111 477.02 107.111C466.449 107.111 457.88 115.673 457.88 126.235C457.88 136.797 466.449 145.359 477.02 145.359Z" fill="#FFB8B8"/>
<path d="M505.912 258.99H448.207L448.276 258.541C448.38 257.87 458.561 191.236 451.052 169.437C450.299 167.295 450.365 164.95 451.238 162.853C452.111 160.757 453.73 159.057 455.782 158.082C466.514 153.032 487.116 146.814 504.505 161.904C507.063 164.161 509.062 166.982 510.341 170.144C511.62 173.306 512.146 176.721 511.877 180.121L505.912 258.99Z" fill="#6C63FF"/>
<path d="M459.29 201.084L433.31 195.818L445.488 166.985C446.217 164.192 448.024 161.803 450.514 160.34C453.004 158.877 455.973 158.46 458.77 159.182C461.567 159.903 463.963 161.704 465.433 164.188C466.903 166.672 467.327 169.637 466.612 172.433L459.29 201.084Z" fill="#6C63FF"/>
<path d="M492.563 210.862L491.002 175.09C489.817 168.365 493.67 162.009 499.595 160.969C505.522 159.934 511.31 164.598 512.499 171.372L518.37 204.797L492.563 210.862Z" fill="#6C63FF"/>
<path d="M503.993 254.707C513.278 290.039 514.291 334.961 511.786 383.961L499.317 382.404L476.717 288.967L464.248 383.961L450.22 383.183C446.03 331.769 441.949 287.632 448.662 258.6L503.993 254.707Z" fill="#2F2E41"/>
<path d="M489.632 141.015C486.061 144.815 479.43 142.775 478.965 137.583C478.928 137.18 478.931 136.774 478.973 136.372C479.213 134.072 480.543 131.984 480.224 129.556C480.152 128.951 479.927 128.376 479.569 127.883C476.724 124.076 470.044 129.585 467.359 126.139C465.712 124.026 467.648 120.698 466.384 118.337C464.717 115.219 459.777 116.757 456.679 115.05C453.232 113.15 453.438 107.867 455.707 104.653C458.474 100.734 463.326 98.6422 468.116 98.3408C472.907 98.0394 477.665 99.3334 482.138 101.075C487.22 103.054 492.259 105.788 495.387 110.253C499.19 115.683 499.556 122.982 497.654 129.331C496.497 133.193 492.548 137.911 489.632 141.015Z" fill="#2F2E41"/>
<path d="M654.606 404.614H79.2463C79.0006 404.614 78.7653 404.516 78.5919 404.342C78.4184 404.168 78.321 403.933 78.321 403.687C78.321 403.442 78.4184 403.207 78.5919 403.033C78.7653 402.859 79.0006 402.761 79.2463 402.76H654.606C654.852 402.761 655.087 402.859 655.261 403.033C655.434 403.207 655.532 403.442 655.532 403.687C655.532 403.933 655.434 404.168 655.261 404.342C655.087 404.516 654.852 404.614 654.606 404.614Z" fill="#3F3D56"/>
<path d="M365.497 319.631H264.186C262.852 319.638 261.569 319.116 260.62 318.18C259.67 317.244 259.131 315.969 259.121 314.636V88.6988C259.131 87.3658 259.67 86.0912 260.62 85.1548C261.569 84.2183 262.852 83.6964 264.186 83.7036H365.497C366.831 83.6964 368.113 84.2183 369.063 85.1548C370.013 86.0912 370.552 87.3658 370.562 88.6988V314.636C370.552 315.969 370.013 317.244 369.063 318.18C368.113 319.116 366.831 319.638 365.497 319.631Z" fill="white"/>
<path d="M370.562 156.81H259.121V158.367H370.562V156.81Z" fill="#CCCCCC"/>
<path d="M370.952 245.661H259.51V247.218H370.952V245.661Z" fill="#CCCCCC"/>
<path d="M295.748 83.7037H294.19V320.41H295.748V83.7037Z" fill="#CCCCCC"/>
<path d="M334.714 83.7037H333.155V320.41H334.714V83.7037Z" fill="#CCCCCC"/>
</g>
<defs>
<clipPath id="clip0_3203_28">
<rect width="678" height="405" fill="white"/>
</clipPath>
</defs>
</svg>
